<svg width="22" height="25" viewBox="0 0 22 25" fill="none" xmlns="http://www.w3.org/2000/svg">
<path d="M7.8125 5.46875C7.8125 3.74512 9.21387 2.34375 10.9375 2.34375C12.6611 2.34375 14.0625 3.74512 14.0625 5.46875V7.8125H7.8125V5.46875ZM5.46875 7.8125H2.34375C1.0498 7.8125 0 8.8623 0 10.1562V20.3125C0 22.9004 2.09961 25 4.6875 25H17.1875C19.7754 25 21.875 22.9004 21.875 20.3125V10.1562C21.875 8.8623 20.8252 7.8125 19.5312 7.8125H16.4062V5.46875C16.4062 2.44629 13.96 0 10.9375 0C7.91504 0 5.46875 2.44629 5.46875 5.46875V7.8125ZM6.64062 10.1562C6.95143 10.1562 7.2495 10.2797 7.46927 10.4995C7.68903 10.7193 7.8125 11.0173 7.8125 11.3281C7.8125 11.6389 7.68903 11.937 7.46927 12.1568C7.2495 12.3765 6.95143 12.5 6.64062 12.5C6.32982 12.5 6.03175 12.3765 5.81198 12.1568C5.59222 11.937 5.46875 11.6389 5.46875 11.3281C5.46875 11.0173 5.59222 10.7193 5.81198 10.4995C6.03175 10.2797 6.32982 10.1562 6.64062 10.1562ZM14.0625 11.3281C14.0625 11.0173 14.186 10.7193 14.4057 10.4995C14.6255 10.2797 14.9236 10.1562 15.2344 10.1562C15.5452 10.1562 15.8432 10.2797 16.063 10.4995C16.2828 10.7193 16.4062 11.0173 16.4062 11.3281C16.4062 11.6389 16.2828 11.937 16.063 12.1568C15.8432 12.3765 15.5452 12.5 15.2344 12.5C14.9236 12.5 14.6255 12.3765 14.4057 12.1568C14.186 11.937 14.0625 11.6389 14.0625 11.3281Z" fill="#C8CDD4"/>
</svg>
