<svg width="7" height="9" viewBox="0 0 7 9" fill="none" xmlns="http://www.w3.org/2000/svg">
<path d="M1.04495 8.11081C0.897065 8.07192 0.786149 8.03303 0.675232 7.91636C0.564316 7.7608 0.527344 7.60525 0.527344 7.44969C0.527344 6.3219 0.527344 5.15523 0.527344 4.02744C0.527344 3.4441 0.527344 2.89966 0.527344 2.31632C0.527344 2.00521 0.712204 1.77187 0.971009 1.69409C1.04495 1.69409 1.08193 1.69409 1.15587 1.69409C2.26503 1.69409 3.3742 1.69409 4.48336 1.69409C4.77914 1.69409 5.00097 1.84965 5.07491 2.16076C5.07491 2.23854 5.11189 2.27743 5.11189 2.35521C5.11189 4.06633 5.11189 5.73857 5.11189 7.44969C5.11189 7.79969 4.92702 8.07192 4.63125 8.11081C3.41117 8.11081 2.22806 8.11081 1.04495 8.11081ZM0.934037 4.883C0.934037 5.38856 0.934037 5.85523 0.934037 6.36079C0.934037 6.7108 0.934037 7.0608 0.934037 7.44969C0.934037 7.52747 0.971009 7.60525 1.04495 7.64414C1.08193 7.64414 1.1189 7.64414 1.19284 7.64414C2.302 7.64414 3.41117 7.64414 4.48336 7.64414C4.66822 7.64414 4.74216 7.56636 4.74216 7.37191C4.74216 5.69968 4.74216 4.02744 4.74216 2.31632C4.74216 2.12187 4.66822 2.04409 4.52033 2.04409C3.41117 2.04409 2.30201 2.04409 1.22981 2.04409C1.04495 2.04409 0.971009 2.12187 0.971009 2.31632C0.934037 3.21077 0.934037 4.06633 0.934037 4.883Z" fill="#F5F5F5"/>
<path d="M6.44476 3.56081C6.44476 4.41637 6.44476 5.27193 6.44476 6.12749C6.44476 6.39972 6.33384 6.59416 6.11201 6.71083C6.03806 6.74972 5.92715 6.74972 5.8532 6.78861C5.74229 6.78861 5.66834 6.71083 5.66834 6.59416C5.66834 6.4775 5.70531 6.39972 5.81623 6.36083H5.8532C6.00109 6.32194 6.03806 6.28305 6.03806 6.12749C6.03806 4.41637 6.03806 2.74414 6.03806 1.03301C6.03806 0.877456 5.96412 0.799678 5.81623 0.799678C4.70707 0.799678 3.5979 0.799678 2.48874 0.799678C2.34085 0.799678 2.30388 0.838567 2.26691 0.994124C2.22994 1.11079 2.11902 1.18857 2.0081 1.14968C1.89719 1.14968 1.82324 1.03301 1.82324 0.877456C1.89719 0.566343 2.11902 0.333008 2.45177 0.333008C3.5979 0.333008 4.74404 0.333008 5.89017 0.333008C6.18595 0.333008 6.44476 0.605232 6.44476 0.994124C6.44476 1.84969 6.44476 2.70525 6.44476 3.56081Z" fill="#F5F5F5"/>
</svg>
