<svg width="19" height="20" viewBox="0 0 19 20" fill="none" xmlns="http://www.w3.org/2000/svg">
<path d="M9.48692 0C12.2426 0 14.9982 0 17.7539 0C18.545 0 18.9603 0.408733 18.9603 1.19324C18.9603 2.22826 18.9537 3.26327 18.9603 4.30489C18.9669 5.24102 18.6307 6.03211 17.9714 6.69136C16.3365 8.3197 14.7082 9.96123 13.0666 11.5896C12.77 11.8796 12.6381 12.2093 12.6381 12.6246C12.6513 13.798 12.6447 14.9781 12.6447 16.1516C12.6447 17.4173 12.0184 18.3337 10.8318 18.782C9.82973 19.1643 8.82108 19.5401 7.81243 19.9159C7.02793 20.2059 6.32913 19.7181 6.32913 18.8808C6.32913 16.7844 6.32254 14.688 6.32913 12.5916C6.32913 12.2027 6.20387 11.8928 5.92699 11.6225C4.29865 10.0008 2.68349 8.37244 1.05515 6.75729C0.343162 6.05189 -0.0128317 5.22124 0.000353243 4.21918C0.0135382 3.19076 0.000353244 2.16233 0.00694572 1.13391C0.00694572 0.435103 0.442049 0 1.14744 0C3.92947 0 6.7049 0 9.48692 0ZM8.43213 17.4305C9.00567 17.2195 9.53307 17.0218 10.0605 16.824C10.4428 16.679 10.5285 16.5537 10.5285 16.145C10.5285 14.9781 10.5351 13.8112 10.5285 12.6444C10.5219 11.6423 10.8647 10.8117 11.5767 10.1063C13.2117 8.49111 14.8202 6.86277 16.4486 5.24761C16.7189 4.97732 16.8639 4.66747 16.8507 4.27852C16.8375 3.82364 16.8507 3.37535 16.8507 2.92047C16.8507 2.66336 16.8507 2.39966 16.8507 2.13596C11.9261 2.13596 7.02793 2.13596 2.11654 2.13596C2.11654 2.83476 2.12972 3.52697 2.10994 4.21918C2.09676 4.64769 2.24179 4.97073 2.54505 5.27398C4.1668 6.88254 5.77536 8.51088 7.4037 10.1194C8.1025 10.8117 8.44531 11.6357 8.43872 12.618C8.43213 14.1145 8.43872 15.611 8.43872 17.1075C8.43213 17.1932 8.43213 17.2921 8.43213 17.4305Z" fill="white"/>
</svg>
