<svg width="23" height="21" viewBox="0 0 23 21" fill="none" xmlns="http://www.w3.org/2000/svg">
<path d="M22.8136 10.7746C22.7624 11.1388 22.7283 11.5088 22.6486 11.8673C21.8632 15.6519 19.6551 18.2357 16.0014 19.5048C11.9151 20.9219 7.24273 19.3284 4.80125 15.7657C4.49962 15.3218 4.57929 14.7812 4.99474 14.4795C5.4102 14.1779 5.96792 14.2747 6.28663 14.7186C7.54436 16.4771 9.21755 17.5983 11.3403 18.0308C15.5005 18.8788 19.6551 16.2779 20.725 12.1689C21.8461 7.84938 19.3591 3.49568 15.0452 2.29486C10.6802 1.08265 6.22403 3.69487 5.08011 8.02012C5.06873 8.05427 5.06873 8.08841 5.05166 8.15101C5.52402 7.83231 5.96793 7.53068 6.41752 7.23475C6.82728 6.96726 7.3281 7.03556 7.62973 7.3884C7.96551 7.78678 7.91429 8.39573 7.48745 8.69167C6.46305 9.40306 5.42727 10.0974 4.3801 10.786C3.97604 11.0535 3.45245 10.9397 3.17359 10.5299C2.46789 9.48843 1.77927 8.44695 1.10202 7.3941C0.88007 7.04694 0.959745 6.46075 1.38089 6.18758C1.79065 5.92579 2.32561 6.01116 2.61586 6.40953C2.81505 6.68271 2.99147 6.97295 3.18497 7.25751C3.22481 7.32011 3.27034 7.38271 3.31587 7.44532C3.48091 6.98434 3.6118 6.52905 3.8053 6.09652C5.30776 2.73308 7.88014 0.701347 11.5225 0.132236C15.9843 -0.567771 20.4461 2.05583 22.0908 6.25587C22.4608 7.19491 22.6941 8.1567 22.7738 9.16403C22.7795 9.22094 22.7965 9.27216 22.8079 9.32907C22.8136 9.81282 22.8136 10.2909 22.8136 10.7746Z" fill="white"/>
<path d="M11.9041 7.70143C11.9041 6.96158 11.9041 6.22743 11.9041 5.48758C11.9041 4.91847 12.2854 4.5144 12.809 4.5144C13.3326 4.5144 13.7253 4.91278 13.7253 5.4762C13.731 6.77378 13.731 8.07135 13.7196 9.37461C13.7196 9.56811 13.7765 9.69901 13.9131 9.8356C14.67 10.5868 15.4155 11.3437 16.1611 12.1007C16.4229 12.3681 16.5139 12.6812 16.4001 13.0397C16.292 13.3869 16.0359 13.5917 15.6773 13.6543C15.3757 13.7056 15.1082 13.6202 14.8977 13.4039C13.9814 12.482 13.0651 11.56 12.1545 10.638C11.9724 10.4502 11.8984 10.2226 11.8984 9.9608C11.9098 9.20957 11.9041 8.45265 11.9041 7.70143Z" fill="white"/>
</svg>
