<svg width="52" height="50" viewBox="0 0 52 50" fill="none" xmlns="http://www.w3.org/2000/svg">
<path d="M25.631 26.7879C33.4629 26.7879 41.2949 26.7879 49.1269 26.7879C50.544 26.7879 51.4582 25.6258 51.0163 24.419C50.7573 23.7039 50.2088 23.3165 49.4469 23.227C49.264 23.2122 49.0659 23.2122 48.8832 23.2122C33.3562 23.2122 17.8142 23.2122 2.28728 23.2122C1.95206 23.2122 1.6016 23.227 1.28161 23.3165C0.443563 23.5698 -0.0592697 24.3892 0.0473919 25.2235C0.169291 26.0578 0.870209 26.6985 1.75398 26.758C1.93683 26.773 2.13492 26.758 2.31775 26.758C10.0736 26.7879 17.8446 26.7879 25.631 26.7879Z" fill="#F5F5F5"/>
<path d="M10.4998 46.4094C8.8846 46.4094 7.26943 46.4094 5.65428 46.4094C4.40481 46.4094 3.65819 45.6943 3.65819 44.4727C3.65819 41.5674 3.65819 38.677 3.65819 35.7718C3.65819 34.4458 2.39348 33.5668 1.18973 34.0435C0.45834 34.3415 0.0164563 34.8779 0.0164563 35.6675C0.0164563 38.7664 -0.0292557 41.8504 0.0316937 44.9346C0.0926432 47.6014 2.43919 49.9107 5.18192 49.9554C8.6408 50.0149 12.0997 49.9852 15.5585 49.9703C16.5794 49.9703 17.3566 49.1508 17.3566 48.1824C17.3413 47.2141 16.5642 46.4244 15.528 46.4244C13.8519 46.4094 12.1759 46.4094 10.4998 46.4094Z" fill="#F5F5F5"/>
<path d="M40.8062 49.9851C42.3604 49.9851 43.9299 49.9851 45.4841 49.9851C48.7296 49.9702 51.1066 47.6608 51.1066 44.5023C51.1219 41.6418 51.1066 38.7812 51.1066 35.9207C51.1066 34.7437 50.3448 33.9242 49.2781 33.9392C48.2115 33.9392 47.4649 34.7585 47.4649 35.9504C47.4649 38.7514 47.4649 41.5673 47.4649 44.3682C47.4649 45.7389 46.764 46.4242 45.3621 46.4392C42.1319 46.4392 38.9015 46.4242 35.6712 46.4392C34.2998 46.4392 33.4008 47.7056 33.919 48.8975C34.2388 49.6423 34.8483 50 35.6712 50C37.393 49.9851 39.0996 49.9851 40.8062 49.9851Z" fill="#F5F5F5"/>
<path d="M10.317 0.0153809C8.76278 0.0153809 7.19334 0.0153809 5.63912 0.0153809C2.39356 0.0302797 0.0317751 2.33959 0.0165378 5.51301C0.00130041 8.37358 0.0165378 11.2341 0.0165378 14.0947C0.0165378 15.2717 0.778406 16.0762 1.86026 16.0762C2.92688 16.0762 3.6735 15.2568 3.6735 14.0649C3.6735 11.2639 3.6735 8.44807 3.6735 5.6471C3.6735 4.27642 4.38966 3.59108 5.77626 3.57618C9.00658 3.57618 12.2369 3.57618 15.4672 3.57618C16.8386 3.57618 17.7376 2.29489 17.2195 1.11789C16.8995 0.387849 16.29 0.0153809 15.4672 0.0153809C13.7453 0.0153809 12.0236 0.0153809 10.317 0.0153809Z" fill="#F5F5F5"/>
<path d="M40.7616 0.0148996C39.1007 0.0148996 37.4551 0.0148996 35.7942 0.0148996C34.5905 0.0148996 33.7676 0.759838 33.7676 1.81765C33.7828 2.84566 34.5905 3.5757 35.7637 3.5757C38.9636 3.5757 42.1482 3.5757 45.348 3.5757C46.7499 3.5757 47.4507 4.26105 47.4507 5.63173C47.4507 8.49229 47.4507 11.3528 47.4507 14.2283C47.4507 15.2117 48.1365 15.9714 49.0811 16.0609C49.9801 16.1503 50.8183 15.584 51.0468 14.705C51.1078 14.4965 51.1078 14.2582 51.1078 14.0347C51.1078 11.2039 51.1078 8.388 51.1078 5.55724C51.0925 2.30931 48.746 0.0148987 45.4395 0C43.8852 0 42.331 0.0148996 40.7616 0.0148996Z" fill="#F5F5F5"/>
</svg>
