<svg width="24" height="25" viewBox="0 0 24 25" fill="none" xmlns="http://www.w3.org/2000/svg">
<path d="M23.5025 8.13636C23.6588 8.56124 23.5269 9.03497 23.19 9.33776L21.0753 11.262C21.129 11.6673 21.1583 12.0824 21.1583 12.5024C21.1583 12.9224 21.129 13.3376 21.0753 13.7429L23.19 15.6671C23.5269 15.9699 23.6588 16.4436 23.5025 16.8685C23.2876 17.4497 23.0288 18.0064 22.7309 18.5437L22.5014 18.9392C22.179 19.4765 21.8176 19.9844 21.422 20.463C21.1339 20.8146 20.6553 20.9318 20.2255 20.7951L17.5053 19.9307C16.8508 20.4337 16.128 20.8537 15.3564 21.1711L14.7459 23.9598C14.6483 24.4042 14.3064 24.7558 13.8571 24.8291C13.1831 24.9414 12.4896 25 11.7815 25C11.0733 25 10.3798 24.9414 9.70589 24.8291C9.25658 24.7558 8.91472 24.4042 8.81704 23.9598L8.20657 21.1711C7.43494 20.8537 6.71214 20.4337 6.05771 19.9307L3.34234 20.8C2.91257 20.9367 2.43396 20.8146 2.14582 20.4679C1.75023 19.9893 1.38883 19.4813 1.0665 18.9441L0.836968 18.5485C0.539058 18.0113 0.280219 17.4546 0.0653329 16.8734C-0.0909476 16.4485 0.0409141 15.9748 0.377894 15.672L2.49256 13.7478C2.43884 13.3376 2.40954 12.9224 2.40954 12.5024C2.40954 12.0824 2.43884 11.6673 2.49256 11.262L0.377894 9.33776C0.0409141 9.03497 -0.0909476 8.56124 0.0653329 8.13636C0.280219 7.55519 0.539058 6.99844 0.836968 6.46122L1.0665 6.06564C1.38883 5.52842 1.75023 5.02051 2.14582 4.5419C2.43396 4.19027 2.91257 4.07306 3.34234 4.20981L6.0626 5.07423C6.71702 4.57121 7.43982 4.1512 8.21146 3.83376L8.82193 1.04513C8.9196 0.600703 9.26146 0.249072 9.71077 0.175816C10.3847 0.0586052 11.0782 0 11.7864 0C12.4945 0 13.188 0.0586052 13.862 0.170932C14.3113 0.244188 14.6531 0.595819 14.7508 1.04024L15.3613 3.82887C16.1329 4.14632 16.8557 4.56632 17.5101 5.06935L20.2304 4.20492C20.6602 4.06818 21.1388 4.19027 21.4269 4.53702C21.8225 5.01563 22.1839 5.52354 22.5062 6.06075L22.7358 6.45634C23.0337 6.99355 23.2925 7.5503 23.5074 8.13147L23.5025 8.13636ZM11.7864 16.4095C12.8226 16.4095 13.8163 15.9978 14.549 15.2651C15.2818 14.5324 15.6934 13.5386 15.6934 12.5024C15.6934 11.4662 15.2818 10.4725 14.549 9.73977C13.8163 9.00706 12.8226 8.59543 11.7864 8.59543C10.7502 8.59543 9.7564 9.00706 9.0237 9.73977C8.29099 10.4725 7.87936 11.4662 7.87936 12.5024C7.87936 13.5386 8.29099 14.5324 9.0237 15.2651C9.7564 15.9978 10.7502 16.4095 11.7864 16.4095Z" fill="white" fill-opacity="0.75"/>
</svg>
