<svg width="28" height="25" viewBox="0 0 28 25" fill="none" xmlns="http://www.w3.org/2000/svg">
<path d="M3.5 0C1.56953 0 0 1.60156 0 3.57143V21.4286C0 23.3984 1.56953 25 3.5 25H24.5C26.4305 25 28 23.3984 28 21.4286V8.92857C28 6.95871 26.4305 5.35714 24.5 5.35714H4.375C3.89375 5.35714 3.5 4.95536 3.5 4.46429C3.5 3.97321 3.89375 3.57143 4.375 3.57143H24.5C25.468 3.57143 26.25 2.77344 26.25 1.78571C26.25 0.797991 25.468 0 24.5 0H3.5ZM22.75 13.3929C23.2141 13.3929 23.6592 13.581 23.9874 13.9159C24.3156 14.2508 24.5 14.705 24.5 15.1786C24.5 15.6522 24.3156 16.1064 23.9874 16.4413C23.6592 16.7761 23.2141 16.9643 22.75 16.9643C22.2859 16.9643 21.8408 16.7761 21.5126 16.4413C21.1844 16.1064 21 15.6522 21 15.1786C21 14.705 21.1844 14.2508 21.5126 13.9159C21.8408 13.581 22.2859 13.3929 22.75 13.3929Z" fill="white"/>
</svg>
